<svg width="38" height="38" viewBox="0 0 38 38" fill="none" xmlns="http://www.w3.org/2000/svg">
<path d="M23.75 12.6667L15.8334 20.5834L15.8334 15.3742C15.834 15.2264 15.8053 15.0799 15.749 14.9433C15.6927 14.8066 15.61 14.6824 15.5054 14.5779C15.4009 14.4734 15.2768 14.3906 15.1401 14.3343C15.0034 14.2781 14.857 14.2494 14.7092 14.25C14.4134 14.2509 14.13 14.3688 13.9209 14.5779C13.7117 14.7871 13.5938 15.0705 13.5929 15.3663L13.6009 22.1667C13.5991 22.7596 13.8325 23.329 14.25 23.75C14.6704 24.1627 15.2364 24.3931 15.8254 24.3913L22.6259 24.3992C22.773 24.3987 22.9185 24.3692 23.0543 24.3124C23.19 24.2556 23.3132 24.1727 23.4168 24.0683C23.5205 23.9639 23.6025 23.8401 23.6584 23.704C23.7142 23.5679 23.7426 23.4221 23.7421 23.275C23.7416 23.1279 23.7121 22.9823 23.6553 22.8466C23.5986 22.7109 23.5156 22.5877 23.4112 22.4841C23.3068 22.3804 23.183 22.2983 23.0469 22.2425C22.9108 22.1867 22.7651 22.1583 22.618 22.1588L17.4167 22.1667L25.3334 14.25C25.5433 14.04 25.6613 13.7553 25.6613 13.4583C25.6613 13.1614 25.5433 12.8766 25.3334 12.6667C25.1234 12.4567 24.8386 12.3388 24.5417 12.3388C24.2448 12.3388 23.96 12.4567 23.75 12.6667Z" fill="#2D8E6F"/>
</svg>
