<svg width="38" height="38" viewBox="0 0 38 38" fill="none" xmlns="http://www.w3.org/2000/svg">
<path d="M14.25 25.3333L22.1667 17.4166V22.6258C22.1661 22.7736 22.1948 22.9201 22.251 23.0567C22.3073 23.1934 22.3901 23.3176 22.4946 23.4221C22.5991 23.5266 22.7233 23.6094 22.86 23.6657C22.9966 23.7219 23.1431 23.7506 23.2909 23.75C23.5866 23.7491 23.8701 23.6312 24.0792 23.4221C24.2884 23.2129 24.4062 22.9295 24.4071 22.6337L24.3992 15.8333C24.401 15.2404 24.1675 14.671 23.75 14.25C23.3297 13.8373 22.7637 13.6069 22.1746 13.6087L15.3742 13.6008C15.2271 13.6013 15.0815 13.6308 14.9458 13.6876C14.8101 13.7444 14.6869 13.8273 14.5832 13.9317C14.4796 14.0361 14.3975 14.1599 14.3417 14.296C14.2859 14.4321 14.2574 14.5779 14.2579 14.725C14.2585 14.8721 14.2879 15.0176 14.3447 15.1534C14.4015 15.2891 14.4844 15.4123 14.5888 15.5159C14.6932 15.6196 14.817 15.7017 14.9531 15.7575C15.0892 15.8133 15.235 15.8417 15.3821 15.8412L20.5834 15.8333L12.6667 23.75C12.4567 23.96 12.3388 24.2447 12.3388 24.5417C12.3388 24.8386 12.4567 25.1234 12.6667 25.3333C12.8766 25.5433 13.1614 25.6612 13.4584 25.6612C13.7553 25.6612 14.0401 25.5433 14.25 25.3333Z" fill="#DA600C"/>
</svg>
