<svg width="20" height="20" viewBox="0 0 20 20" fill="none" xmlns="http://www.w3.org/2000/svg">
<g clip-path="url(#clip0_262_66)">
<path d="M4.17094 20.005C3.71427 20.005 3.25677 19.84 2.90094 19.5084L1.2426 17.9675C-0.404062 16.3217 -0.404062 13.6784 1.22094 12.0542C2.00844 11.2675 3.0551 10.8342 4.1676 10.8342C5.2801 10.8342 6.32677 11.2675 7.11344 12.0542C7.90094 12.8409 8.33427 13.8875 8.33427 15.0009C8.33427 16.1142 7.90094 17.16 7.11344 17.9467L5.44594 19.5059C5.08927 19.8392 4.63094 20.0059 4.1726 20.0059L4.17094 20.005ZM4.16677 12.5C3.49927 12.5 2.87094 12.76 2.39844 13.2325C1.42427 14.2067 1.42427 15.7925 2.39844 16.7675L4.0351 18.2875C4.11177 18.3584 4.2301 18.3584 4.30677 18.2875L5.95427 16.7484C6.40594 16.2959 6.66594 15.6684 6.66594 15C6.66594 14.3317 6.40594 13.7042 5.93344 13.2317C5.46177 12.76 4.83427 12.5 4.16677 12.5ZM15.8376 9.17169C15.3809 9.17169 14.9234 9.00585 14.5676 8.67502L12.9093 7.13419C11.2626 5.48835 11.2626 2.84502 12.8876 1.22085C13.6743 0.434188 14.7209 0.000854492 15.8343 0.000854492C16.9476 0.000854492 17.9926 0.434188 18.7801 1.22085C20.4051 2.84585 20.4051 5.48919 18.7801 7.11335L17.1126 8.67252C16.7559 9.00585 16.2968 9.17252 15.8384 9.17252L15.8376 9.17169ZM15.8334 1.66669C15.1651 1.66669 14.5376 1.92669 14.0651 2.39835C13.0909 3.37335 13.0909 4.95919 14.0651 5.93419L15.7009 7.45419C15.7784 7.52585 15.8976 7.52419 15.9734 7.45419L17.6209 5.91502C18.5751 4.96002 18.5751 3.37419 17.6009 2.39919C17.1284 1.92669 16.5009 1.66669 15.8334 1.66669ZM20.0001 16.6667C20.0001 14.8284 18.5051 13.3334 16.6668 13.3334H12.5001C11.5809 13.3334 10.8334 12.5859 10.8334 11.6667C10.8334 10.9609 11.2801 10.33 11.9443 10.095C12.3784 9.94169 12.6059 9.46585 12.4526 9.03169C12.2993 8.59752 11.8243 8.36919 11.3893 8.52335C10.0601 8.99252 9.16677 10.2567 9.16677 11.6667C9.16677 13.505 10.6618 15 12.5001 15H16.6668C17.5859 15 18.3334 15.7475 18.3334 16.6667C18.3334 17.5859 17.5859 18.3334 16.6668 18.3334H9.16677C8.70677 18.3334 8.33344 18.7067 8.33344 19.1667C8.33344 19.6267 8.70677 20 9.16677 20H16.6668C18.5051 20 20.0001 18.505 20.0001 16.6667Z" fill="#2E3032" fill-opacity="0.8"/>
</g>
<defs>
<clipPath id="clip0_262_66">
<rect width="20" height="20" fill="white"/>
</clipPath>
</defs>
</svg>
